{"title":"Gulaab Gang (2014) - Official Trailer - Madhuri Dixit, Juhi Cha","uid":9466670,"size":46245299,"categoryP":"video","categoryS":"other","magnet":"?xt=urn:btih:0370592fece6c6d8d5be0ad2a4c997be20680b5a&amp;dn=+Gulaab+Gang+%282014%29+-+Official+Trailer+-+Madhuri+Dixit%2C+Juhi+Cha&amp;tr=udp%3A%2F%2Ftracker.openbittorrent.com%3A80&amp;tr=udp%3A%2F%2Fopen.demonii.com%3A1337&amp;tr=udp%3A%2F%2Ftracker.coppersurfer.tk%3A6969&amp;tr=udp%3A%2F%2Fexodus.desync.com%3A6969","seeders":1,"leechers":0,"uploader":"ashish.p","files":1,"time":1389468237,"description":"General\n\nComplete name : Gulaab Gang (2014) - Official Trailer - Madhuri Dixit, Juhi Chawla HD 720p -AshishRocks- { DAKU RG }\nFormat : MPEG-4\nFormat profile : Base Media / Version 2\nCodec ID : mp42\nFile size :\t44.1 MiB\nDuration :\t2mn 31s\nOverall bit rate mode : Variable\nOverall bit rate : 2 440 Kbps\nEncoded date : UTC 2014-01-05 11:50:56\nTagged date :\tUTC 2014-01-05 11:50:56\n\nVideo\n\nID :\t1\nFormat :\tAVC\nFormat/Info : Advanced Video Codec\nFormat profile : &lt;a class=&quot;__cf_email__&quot; href=&quot;/cdn-cgi/l/email-protection&quot; data-cfemail=&quot;6c24050b042c205f425d&quot;&gt;[email&amp;#160;protected]&lt;/a&gt;&lt;script cf-hash='f9e31' type=&quot;text/javascript&quot;&gt;\n/* &lt;![CDATA[ */!function(){try{var t=&quot;currentScript&quot;in document?document.currentScript:function(){for(var t=document.getElementsByTagName(&quot;script&quot;),e=t.length;e--;)if(t[e].getAttribute(&quot;cf-hash&quot;))return t[e]}();if(t&amp;&amp;t.previousSibling){var e,r,n,i,c=t.previousSibling,a=c.getAttribute(&quot;data-cfemail&quot;);if(a){for(e=&quot;&quot;,r=parseInt(a.substr(0,2),16),n=2;a.length-n;n+=2)i=parseInt(a.substr(n,2),16)^r,e+=String.fromCharCode(i);e=document.createTextNode(e),c.parentNode.replaceChild(e,c)}}}catch(u){}}();/* ]]&gt; */&lt;/script&gt;\nFormat settings, CABAC :\tYes\nFormat settings, ReFrames : 1 frame\nCodec ID : avc1\nCodec ID/Info : Advanced Video Coding\nDuration :\t2mn 31s\nBit rate : 2 246 Kbps\nMaximum bit rate : 6 890 Kbps\nWidth : 1 280 pixels\nHeight : 720 pixels\nDisplay aspect ratio : 16:9\nFrame rate mode : Constant\nFrame rate : 25.000 fps\nColor space : YUV\nChroma subsampling : 4:2:0\nBit depth : 8 bits\nScan type : Progressive\nBits/(Pixel*Frame) :\t0.097\nStream size : 40.6 MiB (92%)\nTagged date :\tUTC 2014-01-05 11:50:57\n\nAudio\n\nID :\t2\nFormat :\tAAC\nFormat/Info : Advanced Audio Codec\nFormat profile : LC\nCodec ID : 40\nDuration :\t 2mn 31s\nBit rate mode :\tVariable\nBit rate : 192 Kbps\nMaximum bit rate : 202 Kbps\nChannel(s) : 2 channels\nChannel positions :\tFront: L R\nSampling rate : 44.1 KHz\nCompression mode : Lossy\nStream size : 3.47 MiB (8%)\nEncoded date : UTC 2014-01-05 11:50:57\nTagged date : UTC 2014-01-05 11:50:57","torrent":{"xt":"urn:btih:0370592fece6c6d8d5be0ad2a4c997be20680b5a","amp;dn":"+Gulaab+Gang+%282014%29+-+Official+Trailer+-+Madhuri+Dixit%2C+Juhi+Cha","amp;tr":["udp%3A%2F%2Ftracker.openbittorrent.com%3A80","udp%3A%2F%2Fopen.demonii.com%3A1337","udp%3A%2F%2Ftracker.coppersurfer.tk%3A6969","udp%3A%2F%2Fexodus.desync.com%3A6969"],"infoHash":"0370592fece6c6d8d5be0ad2a4c997be20680b5a","infoHashBuffer":{"type":"Buffer","data":[3,112,89,47,236,230,198,216,213,190,10,210,164,201,151,190,32,104,11,90]},"announce":[],"urlList":[]}}